<svg width="16" height="16" viewBox="0 0 16 16" fill="none" xmlns="http://www.w3.org/2000/svg">
<path d="M8 0C3.58172 0 0 3.58172 0 8C0 12.4183 3.58172 16 8 16C12.4183 16 16 12.4183 16 8C15.9949 3.58385 12.4161 0.00514317 8 0Z" fill="#1971F5" fill-opacity="0.4"/>
<path d="M12.6177 5.46669L8.05438 11.6594C7.94555 11.8037 7.78327 11.8984 7.604 11.9219C7.42473 11.9455 7.2435 11.896 7.10105 11.7847L3.84238 9.17935C3.55483 8.94923 3.50826 8.52958 3.73838 8.24202C3.9685 7.95446 4.38816 7.9079 4.67572 8.13802L7.39305 10.312L11.5444 4.67802C11.6805 4.47375 11.9179 4.36081 12.1623 4.38404C12.4066 4.40728 12.6185 4.56293 12.7137 4.7892C12.8088 5.01547 12.772 5.27574 12.6177 5.46669Z" fill="white"/>
</svg>
